<?xml version="1.0" encoding="utf-8"?>
<!-- Generator: Adobe Illustrator 24.3.0, SVG Export Plug-In . SVG Version: 6.00 Build 0)  -->
<svg version="1.1" xmlns="http://www.w3.org/2000/svg" xmlns:xlink="http://www.w3.org/1999/xlink" x="0px" y="0px"
	 viewBox="0 0 500 500" style="enable-background:new 0 0 500 500;" xml:space="preserve">
<style type="text/css">
	.st0{fill:#FFFFFF;}
	.st1{fill:#669F4A;}
	.st2{fill:#E7C511;}
	.st3{fill:#99B748;}
	.st4{fill:#A05D49;}
	.st5{fill:#B06651;}
	.st6{fill:#C9745C;}
	.st7{fill:#E09D7C;}
	.st8{fill:#B96C55;}
	.st9{fill:#FFFFFF;stroke:#F0C72F;stroke-width:4.252;stroke-linecap:round;stroke-linejoin:round;stroke-miterlimit:10;}
	.st10{fill:#685399;}
	.st11{fill:#67A04B;}
	.st12{fill:#99C12A;}
	.st13{clip-path:url(#SVGID_2_);fill:#E36B00;}
	.st14{clip-path:url(#SVGID_2_);fill:#FFFFFF;}
	.st15{fill:none;stroke:#669F4A;stroke-width:3.5838;stroke-linecap:round;stroke-linejoin:round;stroke-miterlimit:10;}
	.st16{clip-path:url(#SVGID_4_);}
	.st17{fill:#D13C30;}
	.st18{clip-path:url(#SVGID_6_);fill:#E36B00;}
	.st19{clip-path:url(#SVGID_6_);fill:#FFFFFF;}
	.st20{fill:#F0C72F;}
	.st21{fill:#5B2D9E;}
	.st22{fill:#6A34B8;}
	.st23{fill:#7439C9;}
	.st24{fill:none;stroke:#F0C72F;stroke-width:4.2301;stroke-linecap:round;stroke-linejoin:round;stroke-miterlimit:10;}
	.st25{fill:#669F4A;stroke:#669F4A;stroke-width:1.5;stroke-linecap:round;stroke-linejoin:round;stroke-miterlimit:10;}
	.st26{font-family:'Montserrat-Light';}
	.st27{font-size:17.8813px;}
	.st28{letter-spacing:1.15;}
	.st29{fill:none;}
	.st30{font-size:14.7877px;}
	.st31{font-size:16.7151px;}
	.st32{letter-spacing:2.3;}
</style>
<g id="BACKGROUND">
	<rect class="st0" width="500" height="500"/>
</g>
<g id="OBJECTS">
	<g>
		<path class="st1" d="M163.52,56.04L163.52,56.04c4.76,3.37,10.57,4.93,16.38,4.39h0c10.33-0.95,20.14,4.71,24.48,14.13l0,0
			c2.44,5.3,6.69,9.55,11.99,11.99l0,0c9.42,4.34,15.09,14.15,14.13,24.48l0,0c-0.54,5.81,1.02,11.62,4.39,16.38l0,0
			c5.99,8.47,5.99,19.8,0,28.27h0c-3.37,4.76-4.93,10.57-4.39,16.38l0,0c0.95,10.33-4.71,20.14-14.13,24.48l0,0
			c-5.3,2.44-9.55,6.69-11.99,11.99l0,0c-4.34,9.42-14.15,15.09-24.48,14.13h0c-5.81-0.54-11.62,1.02-16.38,4.39h0
			c-8.47,5.99-19.8,5.99-28.27,0l0,0c-4.76-3.37-10.57-4.92-16.38-4.39l0,0c-10.33,0.95-20.14-4.71-24.48-14.13l0,0
			c-2.44-5.3-6.69-9.55-11.99-11.99h0c-9.42-4.34-15.09-14.15-14.13-24.48l0,0c0.54-5.81-1.02-11.62-4.39-16.38l0,0
			c-5.99-8.47-5.99-19.8,0-28.27v0c3.37-4.76,4.92-10.57,4.39-16.38l0,0c-0.95-10.33,4.71-20.14,14.13-24.48h0
			c5.3-2.44,9.55-6.69,11.99-11.99l0,0c4.34-9.42,14.15-15.09,24.48-14.13l0,0c5.81,0.54,11.62-1.02,16.38-4.39v0
			C143.72,50.05,155.05,50.05,163.52,56.04z"/>
		
			<ellipse transform="matrix(0.1564 -0.9877 0.9877 0.1564 -13.7911 266.9507)" class="st2" cx="149.38" cy="141.55" rx="76.81" ry="76.81"/>
		
			<ellipse transform="matrix(0.1566 -0.9877 0.9877 0.1566 -13.8157 266.9186)" class="st0" cx="149.38" cy="141.55" rx="72.73" ry="72.73"/>
		<path class="st3" d="M202.79,122.49c-2.4-1.12-5.18-1.12-5.18-1.12s3.85,5.56,6.05,7.14c1.41,1.01,2.63,0.6,3.02,0.43
			c0.67,3.1,1.07,6.29,1.23,9.54c-0.33-1.56-0.93-3.35-2.06-4.23c-2.01-1.59-4.62-2.15-4.62-2.15s2.4,6.25,4.14,8.27
			c0.99,1.15,2.08,1.16,2.6,1.08c-0.01,3.93-0.39,7.86-1.13,11.73c0.13-1.76,0.14-4.71-1.05-6.22c-1.58-2.01-3.93-3.11-3.93-3.11
			s1.01,6.73,2.27,9.13c0.82,1.55,2.04,1.65,2.43,1.64c-0.79,3.69-1.9,7.33-3.32,10.88c0.42-1.78,0.82-4.41,0.05-6.03
			c-1.12-2.36-3.14-3.96-3.14-3.96s-0.32,6.99,0.44,9.68c0.44,1.57,1.43,2.02,1.88,2.15c-1.38,3.16-2.99,6.25-4.87,9.23
			c-0.47,0.76-0.97,1.5-1.46,2.23c0.62-1.25,2.34-5.05,1.75-7.48c-0.64-2.62-2.26-4.68-2.26-4.68s-1.57,7.01-1.33,9.9
			c0.16,1.96,1.28,2.54,1.56,2.65c-0.68,0.98-3.51,5.17-5.75,7.4c0.09,0.12,0.16,0.25,0.23,0.38c1.88-1.76,5.19-6.56,5.92-7.62
			c0.05,0.06,1.07,1.17,3.19,0.07c2.8-1.45,8.15-8.62,8.15-8.62s-2.85,0.83-5.47,2.25c-1.95,1.05-3.91,3.49-4.99,5.01
			c0.28-0.42,0.56-0.85,0.83-1.28c1.87-2.99,3.5-6.09,4.88-9.25c0.47,0.18,1.52,0.37,2.98-0.74c2.58-1.97,6.71-9.91,6.71-9.91
			s-2.73,1.4-5.14,3.3c-1.23,0.97-2.35,2.57-3.2,4.02c1.17-3.12,2.11-6.3,2.8-9.51c0.52,0.07,1.6,0,2.84-1.34
			c2.25-2.42,4.91-10.87,4.91-10.87s-2.49,1.92-4.56,4.24c-1.13,1.27-2,3.17-2.59,4.8c0.54-3.3,0.81-6.62,0.83-9.95
			c0.28,0.03,1.67,0.04,2.91-1.9c1.8-2.8,2.76-11.48,2.76-11.48s-2.11,2.38-3.73,5.05c-1.36,2.24-1.8,5.8-1.94,7.44
			c0-0.28,0-0.55,0-0.83c-0.08-3.81-0.53-7.56-1.32-11.17c0.4-0.07,1.68-0.43,2.47-2.44c1.22-3.08,0.22-11.72,0.22-11.72
			s-1.59,2.77-2.63,5.71c-0.78,2.21-0.6,5.29-0.4,7.06c-0.9-3.7-2.15-7.24-3.74-10.58c0.01-0.01,0.02-0.02,0.02-0.02
			s-0.01-0.02-0.04-0.06c0.06-0.02,1.67-0.46,2.05-2.94c0.5-3.27-2.71-11.56-2.71-11.56s-0.91,3.06-1.23,6.17
			c-0.33,3.2,1.54,7.59,1.83,8.25c-0.02-0.04-0.05-0.08-0.08-0.13c-1.51-3.12-3.32-6.05-5.4-8.73c-0.15-1.54-0.83-5.6-3.89-7.95
			c-3.42-2.64-7.24-4.05-7.24-4.05s1.65,5.04,4.72,7.81c1.86,1.68,5.36,4.08,6.12,4.58c1.38,1.79,2.64,3.7,3.78,5.7
			c-0.99-1.12-2.24-2.2-3.58-2.5c-2.74-0.6-5.6-0.03-5.6-0.03s5.35,4.68,7.97,5.76c1.35,0.56,2.35,0.24,2.88-0.04
			c1.55,3.26,2.79,6.73,3.67,10.33C205.67,125.67,204.51,123.28,202.79,122.49z"/>
		<path class="st3" d="M96.12,122.49c2.4-1.12,5.18-1.12,5.18-1.12s-3.85,5.56-6.05,7.14c-1.41,1.01-2.63,0.6-3.02,0.43
			c-0.67,3.1-1.07,6.29-1.23,9.54c0.33-1.56,0.93-3.35,2.06-4.23c2.01-1.59,4.62-2.15,4.62-2.15s-2.4,6.25-4.14,8.27
			c-0.99,1.15-2.08,1.16-2.6,1.08c0.01,3.93,0.39,7.86,1.13,11.73c-0.13-1.76-0.14-4.71,1.05-6.22c1.58-2.01,3.93-3.11,3.93-3.11
			s-1.01,6.73-2.27,9.13c-0.82,1.55-2.04,1.65-2.43,1.64c0.79,3.69,1.9,7.33,3.32,10.88c-0.42-1.78-0.82-4.41-0.05-6.03
			c1.12-2.36,3.14-3.96,3.14-3.96s0.32,6.99-0.44,9.68c-0.44,1.57-1.43,2.02-1.88,2.15c1.38,3.16,2.99,6.25,4.87,9.23
			c0.47,0.76,0.97,1.5,1.46,2.23c-0.62-1.25-2.34-5.05-1.75-7.48c0.64-2.62,2.26-4.68,2.26-4.68s1.57,7.01,1.33,9.9
			c-0.16,1.96-1.28,2.54-1.56,2.65c0.68,0.98,3.51,5.17,5.75,7.4c-0.09,0.12-0.16,0.25-0.23,0.38c-1.88-1.76-5.19-6.56-5.92-7.62
			c-0.05,0.06-1.07,1.17-3.19,0.07c-2.8-1.45-8.15-8.62-8.15-8.62s2.85,0.83,5.47,2.25c1.95,1.05,3.91,3.49,4.99,5.01
			c-0.28-0.42-0.56-0.85-0.83-1.28c-1.87-2.99-3.5-6.09-4.88-9.25c-0.47,0.18-1.52,0.37-2.98-0.74c-2.58-1.97-6.71-9.91-6.71-9.91
			s2.73,1.4,5.14,3.3c1.23,0.97,2.35,2.57,3.2,4.02c-1.17-3.12-2.11-6.3-2.8-9.51c-0.52,0.07-1.6,0-2.84-1.34
			c-2.25-2.42-4.91-10.87-4.91-10.87s2.49,1.92,4.56,4.24c1.13,1.27,2,3.17,2.59,4.8c-0.54-3.3-0.81-6.62-0.83-9.95
			c-0.28,0.03-1.67,0.04-2.91-1.9c-1.8-2.8-2.76-11.48-2.76-11.48s2.11,2.38,3.73,5.05c1.36,2.24,1.8,5.8,1.94,7.44
			c0-0.28,0-0.55,0-0.83c0.08-3.81,0.53-7.56,1.32-11.17c-0.4-0.07-1.68-0.43-2.47-2.44c-1.22-3.08-0.22-11.72-0.22-11.72
			s1.59,2.77,2.63,5.71c0.78,2.21,0.6,5.29,0.4,7.06c0.9-3.7,2.15-7.24,3.74-10.58c-0.01-0.01-0.02-0.02-0.02-0.02
			s0.01-0.02,0.04-0.06c-0.06-0.02-1.67-0.46-2.05-2.94c-0.5-3.27,2.71-11.56,2.71-11.56s0.91,3.06,1.23,6.17
			c0.33,3.2-1.54,7.59-1.83,8.25c0.02-0.04,0.05-0.08,0.08-0.13c1.51-3.12,3.32-6.05,5.39-8.73c0.15-1.54,0.83-5.6,3.89-7.95
			c3.42-2.64,7.24-4.05,7.24-4.05s-1.65,5.04-4.72,7.81c-1.86,1.68-5.36,4.08-6.12,4.58c-1.38,1.79-2.64,3.7-3.77,5.7
			c0.99-1.12,2.24-2.2,3.58-2.5c2.74-0.6,5.6-0.03,5.6-0.03s-5.35,4.68-7.97,5.76c-1.35,0.56-2.35,0.24-2.88-0.04
			c-1.55,3.26-2.78,6.73-3.67,10.33C93.24,125.67,94.4,123.28,96.12,122.49z"/>
		<g>
			<g>
				<path class="st4" d="M140.37,91.03l1.5-3.66c0,0,2.46-1.1,5.45-1.7c3.04-0.6,10.05-0.03,12.8,1.07l2.42,3.59
					c0,0-3.57-1.38-7.69-1.84c-4.04-0.45-7.05,0.12-9.71,1.04C142.68,90.39,140.37,91.03,140.37,91.03z"/>
				<polygon class="st4" points="146.34,106.41 141.46,106.54 142.95,113.98 147.86,113.95 				"/>
				<polygon class="st4" points="168.75,105.85 163.31,105.99 164.94,113.85 170.42,113.81 				"/>
				<path class="st5" d="M143.67,112.88l3.24-0.03c0,0-1.95-8.84-2.59-12.09c-0.51-2.58-2.45-13.38-2.45-13.38l-2.95,2.16
					c0,0,1.43,9.36,2.02,12.12C141.54,104.47,143.67,112.88,143.67,112.88z"/>
				<path class="st5" d="M165.55,113.19c0,0-3.1-13.33-3.51-15.3c-0.41-1.97-1.93-11.14-1.93-11.14l4.34,3.37c0,0,1.6,6.62,2.09,10
					c0.49,3.39,2.85,13.18,2.85,13.18L165.55,113.19z"/>
			</g>
			<path class="st6" d="M167.89,103.16l5.08-0.16c0,0,0.7,11.83,1.43,18.52c0.73,6.67,1.65,14.05,2.19,19.5
				c1.08,10.98,1.09,15.51,1.09,15.51l-12.42,0.22c0,0-2.74-10.81-2.54-24.4C162.84,124.69,167.89,103.16,167.89,103.16z"/>
			<path class="st7" d="M130.1,102.62c0,0-4.35,27.95-4.75,31.88c-0.57,5.56-1.53,22.23-1.53,22.23s7.06,0.45,15.31,0.54
				c10.55,0.1,26.11-0.54,26.11-0.54s-0.54-10.02,0.23-19.33c0.71-8.62,2.42-34.25,2.42-34.25s-15.23,0.31-22.31,0.27
				C138.72,103.39,130.1,102.62,130.1,102.62z"/>
			<g>
				<path class="st6" d="M138.18,91.03l2.71-3.66c0,0,2.82-1.1,6.01-1.7c3.24-0.6,10.06-0.03,12.44,1.07l1.23,3.59
					c0,0-3.12-1.38-7.08-1.84c-3.89-0.45-7.08,0.12-10.05,1.04C140.71,90.39,138.18,91.03,138.18,91.03z"/>
				<polygon class="st8" points="139.08,106.41 134.16,106.54 133.19,113.98 138.11,113.95 				"/>
				<polygon class="st8" points="161.68,105.85 156.19,105.99 155.34,114.25 160.84,114.21 				"/>
				<path class="st6" d="M134.27,112.88l3.25-0.03c0,0,0.97-8.84,1.4-12.09c0.34-2.58,1.97-13.38,1.97-13.38l-3.67,2.16
					c0,0-1.66,9.36-1.98,12.12C134.92,104.47,134.27,112.88,134.27,112.88z"/>
				<path class="st6" d="M156.05,113.19c0,0,1.31-13.33,1.55-15.3c0.24-1.97,1.75-11.14,1.75-11.14l3.23,3.37c0,0-0.59,6.62-1.22,10
					c-0.63,3.39-1.51,13.18-1.51,13.18L156.05,113.19z"/>
			</g>
		</g>
	</g>
	<g>
		<polygon class="st1" points="358.09,62.19 367.74,55.83 375.74,64.18 386.58,60.13 392.52,70.05 403.98,68.51 407.57,79.5 
			419.08,80.55 420.13,92.07 431.12,95.66 429.59,107.12 439.51,113.06 435.46,123.89 443.8,131.89 437.45,141.55 443.8,151.21 
			435.46,159.21 439.51,170.04 429.59,175.98 431.12,187.44 420.13,191.03 419.08,202.54 407.57,203.6 403.98,214.59 392.52,213.05 
			386.58,222.97 375.74,218.92 367.74,227.27 358.09,220.91 348.43,227.27 340.43,218.92 329.6,222.97 323.65,213.05 312.19,214.59 
			308.61,203.6 297.09,202.54 296.04,191.03 285.05,187.44 286.58,175.98 276.67,170.04 280.72,159.21 272.37,151.21 278.73,141.55 
			272.37,131.89 280.72,123.89 276.67,113.06 286.58,107.12 285.05,95.66 296.04,92.07 297.09,80.55 308.61,79.5 312.19,68.51 
			323.65,70.05 329.6,60.13 340.43,64.18 348.43,55.83 		"/>
		
			<ellipse transform="matrix(0.9876 -0.1568 0.1568 0.9876 -17.8518 57.8566)" class="st9" cx="357.78" cy="142.08" rx="69.28" ry="69.28"/>
		<g>
			<g>
				<path class="st10" d="M317.86,135.87c3.19,9.95,10.18,20.12,19.75,25.38c9.78,5.37,24.96-0.39,21.51-12.4
					c-1.72-5.98-9.34-6.09-14.29-8.39c-5.41-2.52-9.9-6.57-14.3-10.66c-2.9-2.69-5.37-8.36-9.97-7.37
					C314.3,123.79,316.54,131.76,317.86,135.87z"/>
				<path class="st3" d="M327.8,125.6c-1.44-0.19-1.44-0.19-1.44-0.19s1.96,0.25,2.84-2.04c0.64-1.65-0.37-2.83-0.37-2.83
					s-0.65,1.15-2.36,1.48c-1.71,0.33-2.31-1.61-3.99-1.48c-1.69,0.13-2.1,0.96-3.31,0.56c-1.2-0.4-1.65-4.91-2.86-5.55
					c-0.27-0.14-1.15-0.01-0.97,1.07c0.18,1.08,1.78,3.34,1.53,5.35c-0.25,2.01-2.94,1.82-2.92,5s-0.28,3.86-1.36,4.99
					c-1.19,1.25-1.73,1.32-1.73,1.32c0.78,0.44,2.33,1.06,4.3,0.31c0.91-0.35,1.3-0.87,1.46-1.33c-0.02,0.3-0.05,0.7-0.09,1.22
					c-0.17,2.2,1.51,3.31,1.51,3.31s1.02-3.51,2.71-5.33c1.69-1.82,1.13-4.07,1.13-4.07s2.16,3.16,3.9,1.74
					c1.74-1.43,4.37-1.53,4.37-1.53S329.24,125.79,327.8,125.6z"/>
			</g>
			<g>
				<path class="st11" d="M377.26,124.19c0,0,1.36-2.51,0.53-6.97c-0.83-4.46-7.39-5.31-7.39-5.31s-3.37-7.53-10.12-7.54
					c-6.76-0.01-10.09,7.51-10.09,7.51s-6.55,0.83-7.36,5.29c-0.81,4.46,0.56,6.97,0.56,6.97s-5.88,1.2-3.37,8.64
					c1.59,4.73,5.32,6.98,5.32,6.98s-1.36,3.9,0.84,7.81s6.02,3.91,6.02,3.91s-1.64,1.39,0.01,6.13c1.65,4.74,8.21,6.98,8.21,6.98
					s6.55-2.22,8.18-6.96c1.63-4.74-0.01-6.13-0.01-6.13s3.82,0.01,6-3.89c2.18-3.9,0.8-7.8,0.8-7.8s5.05-3,5.87-7.94
					C382.44,124.76,377.26,124.19,377.26,124.19z"/>
				<g>
					<path class="st0" d="M360.27,104.38c0,0,0.01,0,0.01,0c6.76,0.01,10.12,7.54,10.12,7.54s6.56,0.85,7.39,5.31
						c0.83,4.46-0.53,6.97-0.53,6.97s5.18,0.56,4,7.67c-0.82,4.93-5.87,7.94-5.87,7.94s1.37,3.9-0.8,7.8c-2.18,3.9-6,3.89-6,3.89
						s1.64,1.4,0.01,6.13c-1.63,4.74-8.18,6.96-8.18,6.96s-6.56-2.24-8.21-6.98c-1.65-4.74-0.01-6.13-0.01-6.13
						s-3.82-0.01-6.02-3.91s-0.84-7.81-0.84-7.81s-3.73-2.24-5.32-6.98c-2.5-7.44,3.37-8.64,3.37-8.64s-1.37-2.51-0.56-6.97
						c0.81-4.46,7.36-5.29,7.36-5.29S353.52,104.38,360.27,104.38 M360.27,101.45c-6.56,0-10.46,5.22-12,7.83
						c-3.24,0.79-7.52,2.95-8.32,7.37c-0.45,2.45-0.34,4.46-0.07,5.94c-0.82,0.58-1.67,1.39-2.32,2.52
						c-1.35,2.34-1.45,5.23-0.32,8.6c1.18,3.51,3.34,5.9,4.87,7.25c-0.24,1.96-0.2,5,1.51,8.04c1.33,2.36,3.18,3.76,4.92,4.55
						c-0.05,1.31,0.18,2.97,0.89,5.03c2.06,5.92,9.22,8.51,10.03,8.79c0.31,0.1,0.63,0.16,0.94,0.16c0.32,0,0.63-0.05,0.94-0.15
						c0.81-0.27,7.97-2.85,10-8.78c0.71-2.05,0.92-3.7,0.87-5.01c1.74-0.78,3.59-2.18,4.9-4.54c1.68-3,1.73-6.01,1.49-7.97
						c1.92-1.57,4.83-4.56,5.52-8.71c0.55-3.32,0.05-6.04-1.5-8.09c-0.57-0.76-1.22-1.32-1.86-1.74c0.24-1.47,0.33-3.44-0.12-5.82
						c-0.82-4.42-5.1-6.58-8.34-7.38c-1.54-2.6-5.46-7.85-12.04-7.86C360.29,101.45,360.27,101.45,360.27,101.45L360.27,101.45z"/>
				</g>
				<path class="st0" d="M366.73,132.08c4.51-2.77-3.25,0.04-5.62,0.43c-0.08-3.97-0.16-6.87-0.19-8.18c0-0.14-0.01-0.26-0.01-0.4
					c0.7-0.28,1.93-0.91,3.59-2.31c2.99-2.53-2.04-0.04-3.64,0.37c-0.25-8.8-0.7-8.81-0.7-8.81s-0.45,0.01-0.66,8.75
					c-1.66-0.52-6.43-2.86-3.42-0.32c1.51,1.28,2.66,1.91,3.38,2.23c0,0.16-0.01,0.32-0.01,0.49c-0.02,1.3-0.06,4.19-0.12,8.14
					c-2.44-0.48-9.92-3.18-5.4-0.4c2.47,1.52,4.31,2.21,5.37,2.53c-0.05,2.86-0.38,35.17-0.27,36.57c0.32,3.9,1.27,4.18,1.27,4.18
					s0.94-0.28,1.25-4.18c0.11-1.39-0.34-33.64-0.39-36.51C362.17,134.38,364.08,133.71,366.73,132.08z"/>
				<path class="st0" d="M361.15,144.7c0-0.14-1.78-0.16-1.78-0.05c-2.44-0.48-9.92-3.18-5.4-0.4c2.47,1.52,4.31,2.21,5.37,2.53
					c0,0.14,1.86,0.19,1.86,0.06c1.01-0.28,2.93-0.95,5.57-2.58C371.27,141.5,363.51,144.3,361.15,144.7z"/>
			</g>
			<g>
				<g>
					<g>
						<g>
							<g>
								<g>
									<path class="st12" d="M411.43,125.64c-2.26,2.42-4.52,4.1-7.78,6.57c3.12-2.64,5.26-4.42,7.33-6.94
										c-1.09-0.87-2.18-1.74-3.26-2.61c-1.83,2.7-3.83,4.5-6.93,7.38c2.37-2.97,4.19-5.84,5.37-8.62
										c-1.2-0.95-2.41-1.9-3.62-2.85c-0.73,5.74-6.4,13.51-6.33,13.91c0.17,0.94,1.74,2.38,2.86,2.18
										c0.01,0.83,0.26,1.6,0.72,2.02c0.7,0.64,8.69-4.89,13.74-9.37C412.83,126.76,412.13,126.2,411.43,125.64z"/>
									<g>
										<defs>
											<path id="SVGID_1_" d="M387.27,155.91c-1.76,1.9-3.9,3.35-6.21,5.21c-2.12,1.7-4.41,3.94-6.85,5.59
												c-4.41,2.97-8.57,5.51-12.51,7.47c-1.24,0.62-7,2.69-6.06-1.47c0.35-1.54,1.63-2.76,2.52-3.8
												c1.5-1.75,3.15-3.44,4.66-5.34c1.5-1.88,2.84-3.95,4.3-5.9c1.57-2.09,3.46-3.85,5.06-5.77
												c2.95-3.56,5.77-6.82,8.53-10.63c1.37-1.89,3.28-3.17,4.83-5.02c1.37-1.64,2.21-3.82,4.01-5.06
												c3.24-2.23,8.78-1.25,11.58,1.46c1.97,1.91,2.35,4.59,1.93,7.22c-0.41,2.54-2.06,3.76-3.98,5.25
												c-2.34,1.81-4.16,4.49-6.34,6.46C390.83,153.29,388.76,154.3,387.27,155.91z"/>
										</defs>
										<clipPath id="SVGID_2_">
											<use xlink:href="#SVGID_1_"  style="overflow:visible;"/>
										</clipPath>
										<path class="st13" d="M387.27,155.91c-1.76,1.9-3.9,3.35-6.21,5.21c-2.12,1.7-4.41,3.94-6.85,5.59
											c-4.41,2.97-8.57,5.51-12.51,7.47c-1.24,0.62-7,2.69-6.06-1.47c0.35-1.54,1.63-2.76,2.52-3.8
											c1.5-1.75,3.15-3.44,4.66-5.34c1.5-1.88,2.84-3.95,4.3-5.9c1.57-2.09,3.46-3.85,5.06-5.77c2.95-3.56,5.77-6.82,8.53-10.63
											c1.37-1.89,3.28-3.17,4.83-5.02c1.37-1.64,2.21-3.82,4.01-5.06c3.24-2.23,8.78-1.25,11.58,1.46
											c1.97,1.91,2.35,4.59,1.93,7.22c-0.41,2.54-2.06,3.76-3.98,5.25c-2.34,1.81-4.16,4.49-6.34,6.46
											C390.83,153.29,388.76,154.3,387.27,155.91z"/>
										<path class="st14" d="M385.75,140.47c1.74,1.25,2.72,1.86,4.52,3.61c3.01,2.92,3.9,4.58,3.9,4.58s-2.88-1.06-5.24-3.56
											C386.56,142.6,385.75,140.47,385.75,140.47z"/>
										<path class="st14" d="M364.15,166.87c0.91,0.89,1.45,1.33,2.3,2.54c1.42,2.02,1.61,3.19,1.61,3.19s-1.5-0.89-2.6-2.61
											C364.35,168.26,364.15,166.87,364.15,166.87z"/>
										<path class="st14" d="M382.77,151.6c-1.7-1.76-2.79-3.41-4.27-4.58c-2.46-1.94-4.63-3.3-4.63-3.3s0.77,1.57,2.59,3.54
											C379.3,150.36,382.77,151.6,382.77,151.6z"/>
										<path class="st14" d="M397.23,139.56c0,0-2.43-3.3-3.79-4.3c-0.87-0.64-3.49-1.85-3.49-1.85s1.01,1.59,2.12,2.61
											C394.52,138.29,397.23,139.56,397.23,139.56z"/>
										<path class="st14" d="M372.55,156.94c1.42,2.01,2.69,3.72,5,5.23c2.32,1.51,5.64,3.55,5.64,3.55s-2.37-3.68-5.55-5.98
											C374.46,157.44,372.55,156.94,372.55,156.94z"/>
										<path class="st14" d="M363.59,161.33c0.48,1.02,0.93,1.88,1.81,2.73c0.88,0.84,2.12,2.02,2.12,2.02s-0.73-1.91-1.93-3.16
											C364.39,161.65,363.59,161.33,363.59,161.33z"/>
									</g>
								</g>
							</g>
						</g>
					</g>
				</g>
				<g>
					<path class="st0" d="M402.53,118.58c1.21,0.94,2.42,1.89,3.62,2.85c-1.18,2.78-3,5.65-5.37,8.62c3.11-2.88,5.1-4.68,6.93-7.38
						c1.09,0.87,2.18,1.74,3.26,2.61c-2.07,2.52-4.21,4.3-7.33,6.94c3.27-2.47,5.52-4.16,7.78-6.57c0.7,0.56,1.4,1.12,2.1,1.68
						c-3.27,2.9-7.76,6.23-10.72,8.05c0.46,1.41,0.5,2.96,0.25,4.49c-0.41,2.54-2.06,3.76-3.98,5.25c-2.34,1.81-4.16,4.49-6.34,6.46
						c-1.91,1.73-3.98,2.73-5.47,4.34c-1.76,1.9-3.9,3.35-6.21,5.21c-0.32,0.25-0.64,0.52-0.96,0.8c-0.42,0.35-0.84,0.72-1.26,1.09
						c-1.47,1.28-3.02,2.62-4.63,3.7c-2.33,1.57-4.59,3.02-6.78,4.32c-0.26,0.15-0.51,0.3-0.77,0.45c-1.69,0.99-3.35,1.89-4.97,2.7
						c-0.66,0.33-2.59,1.06-4.11,1.06c-1.35,0-2.39-0.58-1.95-2.53c0.35-1.54,1.63-2.76,2.52-3.8c1.5-1.75,3.15-3.44,4.66-5.34
						c0.39-0.49,0.76-0.98,1.13-1.49c0.09-0.12,0.18-0.25,0.27-0.37c0.97-1.34,1.91-2.72,2.9-4.04c1.57-2.09,3.46-3.85,5.06-5.77
						c1.38-1.66,2.72-3.26,4.05-4.88c0.29-0.35,0.57-0.71,0.86-1.06c1.22-1.51,2.43-3.05,3.62-4.69c1.37-1.89,3.28-3.17,4.83-5.02
						c1.37-1.64,2.21-3.82,4.01-5.06c1.23-0.85,2.8-1.23,4.42-1.23c1.13,0,2.28,0.19,3.37,0.53
						C399.02,127.72,402.01,122.65,402.53,118.58 M402.53,115.71c-0.37,0-0.74,0.07-1.09,0.22c-0.95,0.39-1.62,1.27-1.75,2.29
						c-0.36,2.82-2.32,6.56-3.74,9.02c-0.66-0.1-1.32-0.15-1.97-0.15c-2.3,0-4.39,0.6-6.04,1.74c-1.63,1.12-2.59,2.63-3.45,3.96
						c-0.39,0.6-0.75,1.17-1.13,1.63c-0.58,0.7-1.26,1.33-1.98,2c-1.01,0.94-2.05,1.91-2.98,3.18c-1,1.39-2.09,2.8-3.53,4.57
						l-0.29,0.36c-0.18,0.23-0.37,0.46-0.56,0.69c-0.85,1.04-1.71,2.07-2.59,3.12c-0.48,0.58-0.96,1.16-1.45,1.74
						c-0.61,0.74-1.28,1.46-1.99,2.23c-1.05,1.14-2.14,2.31-3.15,3.65c-0.64,0.85-1.25,1.72-1.85,2.56
						c-0.36,0.51-0.72,1.02-1.08,1.52l-0.12,0.17l-0.13,0.18c-0.39,0.54-0.74,0.99-1.06,1.4c-0.88,1.1-1.83,2.16-2.76,3.19
						c-0.61,0.67-1.23,1.37-1.84,2.07c-0.13,0.15-0.27,0.31-0.42,0.47c-0.96,1.07-2.27,2.54-2.73,4.56
						c-0.49,2.16,0.16,3.55,0.78,4.33c0.62,0.77,1.81,1.7,3.96,1.7c2.09,0,4.44-0.89,5.39-1.36c1.62-0.8,3.3-1.72,5.14-2.79
						c0.26-0.15,0.52-0.31,0.79-0.46c2.17-1.3,4.44-2.74,6.91-4.41c1.73-1.17,3.32-2.54,4.85-3.87l0.05-0.04
						c0.42-0.36,0.83-0.72,1.24-1.06c0.3-0.26,0.61-0.51,0.9-0.75c0.61-0.49,1.22-0.96,1.8-1.41c1.68-1.3,3.28-2.52,4.72-4.09
						c0.61-0.66,1.44-1.25,2.4-1.93c0.88-0.62,1.89-1.33,2.88-2.22c1.07-0.96,2.02-2.04,2.94-3.07c1.09-1.23,2.13-2.39,3.24-3.25
						l0.14-0.11c2.04-1.57,4.34-3.36,4.92-6.95c0.2-1.25,0.24-2.46,0.12-3.6c3.05-2.04,6.7-4.84,9.42-7.26
						c0.63-0.56,0.99-1.37,0.96-2.22c-0.02-0.85-0.42-1.64-1.08-2.17c-0.7-0.56-1.4-1.11-2.09-1.67c-0.08-0.06-0.16-0.12-0.24-0.17
						c-0.07-0.07-0.14-0.13-0.21-0.19c-1.09-0.87-2.18-1.74-3.27-2.61c-0.27-0.22-0.57-0.38-0.89-0.48
						c-0.17-0.29-0.4-0.55-0.67-0.76c-1.21-0.96-2.42-1.92-3.65-2.86C403.78,115.91,403.16,115.71,402.53,115.71L402.53,115.71z"/>
				</g>
			</g>
			<g>
				<path class="st0" d="M311.02,156.67l54.63,6.94l30.43-7l-1.48,12.48c-2.17,18.35-18.44,31.71-36.86,30.28l-14.3-1.11
					c-16.9-1.31-30.32-14.73-31.65-31.62L311.02,156.67z"/>
				<path class="st3" d="M383.47,152.3c-8.86-0.58-18.82,6.23-19.04,17.52c-2.08-16.5-20.81-21.53-35.14-18.86
					c-15.32,2.86-18.27,5.71-18.27,5.71s13.89,12.85,23.82,19.09c9.93,6.24,24.07,0.84,24.07,0.84
					c-9.37-13.45-24.4-17.11-24.4-17.11c16.93-1.27,30.11,16.86,30.11,16.86c0-0.13-0.01-0.26-0.01-0.4
					c0.25-0.74,6.9-14.91,17.82-15.78c0,0-8.4,4.17-13,15c0,0,8.14,2.11,13.69-3.12c5.55-5.23,12.95-15.43,12.95-15.43
					S393.14,152.94,383.47,152.3z"/>
				<g>
					<path class="st0" d="M336.73,150.29c12.68,0,25.97,5.78,27.7,19.53c0.22-10.84,9.41-17.55,17.98-17.55
						c0.35,0,0.71,0.01,1.06,0.03c9.67,0.64,12.61,4.31,12.61,4.31s-7.4,10.2-12.95,15.43c-3.07,2.9-6.94,3.54-9.78,3.54
						c-2.29,0-3.91-0.42-3.91-0.42c4.6-10.83,13-15,13-15c-10.91,0.87-17.57,15.04-17.82,15.78c0,0.13,0.01,0.26,0.01,0.4
						c0,0-12.3-16.92-28.41-16.92c-0.56,0-1.13,0.02-1.71,0.06c0,0,15.03,3.66,24.4,17.11c0,0-5.68,2.17-12.37,2.17
						c-3.86,0-8.06-0.72-11.7-3.01c-9.93-6.24-23.82-19.09-23.82-19.09s2.95-2.85,18.27-5.71
						C331.68,150.52,334.19,150.29,336.73,150.29 M336.73,147.72L336.73,147.72c-2.68,0-5.34,0.24-7.91,0.72
						c-15.3,2.85-19,5.82-19.59,6.38c-0.51,0.49-0.79,1.17-0.79,1.88c0.01,0.71,0.31,1.38,0.83,1.86
						c0.57,0.53,14.18,13.09,24.2,19.38c3.59,2.26,7.99,3.4,13.07,3.4c7.08,0,13.04-2.24,13.29-2.34c0.74-0.28,1.31-0.89,1.54-1.65
						c0.08-0.27,0.12-0.55,0.11-0.82c0.67,0.8,1.04,1.3,1.06,1.33c0.49,0.68,1.27,1.06,2.08,1.06c0.26,0,0.53-0.04,0.79-0.12
						c1.02-0.33,1.72-1.24,1.78-2.3c0.01-0.01,0.01-0.02,0.02-0.03c0.34,0.59,0.91,1.03,1.58,1.2c0.2,0.05,2.01,0.5,4.56,0.5
						c3.21,0,7.82-0.74,11.54-4.24c5.66-5.34,12.96-15.37,13.27-15.79c0.68-0.94,0.65-2.22-0.07-3.12
						c-0.37-0.47-3.95-4.58-14.45-5.27c-0.41-0.03-0.82-0.04-1.23-0.04c-7.08,0-14.65,4.09-18.31,11.13
						c-1.88-3.23-4.59-5.97-8.06-8.11C350.82,149.49,343.96,147.72,336.73,147.72L336.73,147.72z"/>
				</g>
			</g>
		</g>
	</g>
	<g>
		<path class="st1" d="M286.39,419.93V300.32c0-14.13,11.45-25.58,25.58-25.58h92.24c14.13,0,25.58,11.45,25.58,25.58v119.6
			c0,14.13-11.45,25.58-25.58,25.58h-92.24C297.84,445.51,286.39,434.05,286.39,419.93z"/>
		<path class="st9" d="M402.93,435.05h-89.68c-9.5,0-17.2-7.7-17.2-17.2V302.4c0-9.5,7.7-17.2,17.2-17.2h89.68
			c9.5,0,17.2,7.7,17.2,17.2v115.45C420.13,427.35,412.43,435.05,402.93,435.05z"/>
		<g>
			<g>
				<polyline class="st15" points="405.21,344.72 394.63,344.72 376.26,379.22 331.99,379.22 322.64,367.66 381.12,367.66 				"/>
				<g>
					<circle class="st1" cx="372.34" cy="392.88" r="7.45"/>
					<circle class="st0" cx="372.34" cy="392.88" r="3.16"/>
				</g>
				<g>
					<circle class="st1" cx="336.64" cy="392.88" r="7.45"/>
					<circle class="st0" cx="336.64" cy="392.88" r="3.16"/>
				</g>
			</g>
			<polygon class="st1" points="376.26,379.22 331.86,379.22 324.77,367.66 384.11,367.66 			"/>
			<g>
				<defs>
					<rect id="SVGID_3_" x="312.8" y="318.06" width="86.93" height="43.33"/>
				</defs>
				<clipPath id="SVGID_4_">
					<use xlink:href="#SVGID_3_"  style="overflow:visible;"/>
				</clipPath>
				<g class="st16">
					<path class="st11" d="M331.46,341.7c0.17,1.62,0.67,5.67,1.64,6.82c0,0,0.19,0.76-0.69,0.8c0,0-2.17-5.46-2.56-7.89
						C330.3,341.03,331.19,340.95,331.46,341.7z"/>
					<path class="st17" d="M322.81,362.39c-2.58-6.66,1.23-12.7,7.83-15.25c6.6-2.56,13.49-0.66,16.07,6
						c2.58,6.66-1.02,13.25-7.62,15.81C332.49,371.5,325.39,369.05,322.81,362.39z"/>
					<path class="st11" d="M326.14,350.1c4.69-0.33,5.64-3.61,5.64-3.61s-1.33-3.12-6.08-2.79c-3.23,0.23-5.63,3.61-5.63,3.61
						S322.91,350.32,326.14,350.1z"/>
				</g>
				<g class="st16">
					<path class="st11" d="M368.32,341.55c0,0,1.14-1.58,0.8-5.3c-0.34-3.72-5.15-5.89-5.15-5.89s-2.06-6.74-7.25-7.18
						c-5.19-0.44-8.22,5.87-8.22,5.87s-5.07,1.33-5.95,4.94c-0.88,3.61,0.01,5.36,0.01,5.36s-4.52,1.99-3.07,7.33
						c0.92,3.39,3.63,4.61,3.63,4.61s-1.27,3.2,0.18,6c1.45,2.81,4.39,2.61,4.39,2.61s-1.34,1.15-0.35,4.79
						c0.99,3.65,5.91,5.58,5.91,5.58s5.14-1.05,6.65-4.48c1.51-3.43,0.35-4.8,0.35-4.8s2.88,0.71,4.71-1.82
						c1.84-2.52,1.05-5.91,1.05-5.91s3.85-0.93,4.73-4.52C372.02,343.57,368.32,341.55,368.32,341.55z"/>
					<g>
						<g>
							<path class="st0" d="M356.21,323.15c0.17,0,0.34,0.01,0.52,0.02c5.19,0.44,7.25,7.18,7.25,7.18s4.81,2.17,5.15,5.89
								c0.34,3.72-0.8,5.3-0.8,5.3s3.7,2.02,2.43,7.2c-0.88,3.59-4.73,4.52-4.73,4.52s0.78,3.38-1.05,5.91
								c-1.18,1.62-2.78,1.91-3.78,1.91c-0.56,0-0.93-0.09-0.93-0.09s1.16,1.37-0.35,4.8c-1.51,3.43-6.65,4.48-6.65,4.48
								s-4.92-1.93-5.91-5.58c-0.99-3.65,0.35-4.79,0.35-4.79s-0.05,0-0.13,0c-0.58,0-3-0.15-4.27-2.61c-1.45-2.81-0.18-6-0.18-6
								s-2.71-1.22-3.63-4.61c-1.45-5.33,3.07-7.33,3.07-7.33s-0.89-1.75-0.01-5.36c0.88-3.61,5.95-4.94,5.95-4.94
								S351.33,323.15,356.21,323.15 M356.21,321.03c-4.91,0-8.03,4.36-9.15,6.25c-1.82,0.65-5.65,2.43-6.56,6.2
								c-0.52,2.13-0.51,3.76-0.36,4.9c-1.93,1.54-3.87,4.48-2.69,8.85c0.63,2.33,2,3.98,3.23,4.98c-0.29,1.52-0.41,3.83,0.74,6.05
								c0.85,1.65,2.15,2.66,3.48,3.22c-0.1,0.99-0.02,2.23,0.4,3.77c1.23,4.54,6.57,6.76,7.18,7c0.25,0.1,0.51,0.15,0.77,0.15
								c0.14,0,0.28-0.01,0.43-0.04c0.64-0.13,6.26-1.4,8.16-5.71c0.63-1.44,0.89-2.64,0.94-3.62c1.56-0.36,2.91-1.25,3.9-2.6
								c1.44-1.97,1.68-4.23,1.63-5.78c1.59-0.8,3.77-2.4,4.51-5.39c0.97-3.95-0.42-6.76-1.93-8.34c0.32-1.1,0.55-2.7,0.35-4.85
								c-0.35-3.87-3.87-6.27-5.56-7.2c-0.85-2.13-3.47-7.34-8.78-7.78C356.67,321.04,356.43,321.03,356.21,321.03L356.21,321.03z"
								/>
						</g>
					</g>
					<path class="st0" d="M360.01,345.51c3.58-1.51-2.47-0.41-4.31-0.28c0.17-3.11,0.28-5.38,0.34-6.41
						c0.01-0.11,0.01-0.21,0.02-0.31c0.55-0.17,1.54-0.57,2.89-1.47c2.43-1.63-1.55-0.26-2.81-0.05c0.33-6.9-0.01-6.94-0.01-6.94
						s-0.34-0.02-1.03,6.8c-1.25-0.49-4.78-2.38-2.62-0.36c1.09,1.02,1.94,1.56,2.47,1.85c-0.01,0.13-0.02,0.25-0.04,0.39
						c-0.09,1.02-0.29,3.27-0.58,6.35c-1.85-0.51-7.46-2.52-4.14-0.41c1.81,1.15,3.19,1.77,3.98,2.08
						c-0.2,2.24-2.38,27.48-2.37,28.58c0.02,3.07,0.73,3.34,0.73,3.34s0.74-0.15,1.21-3.18c0.17-1.08,1.74-26.33,1.86-28.58
						C356.39,346.78,357.9,346.4,360.01,345.51z"/>
					<path class="st0" d="M354.99,354.76c0.01-0.11-1.35-0.24-1.36-0.15c-1.85-0.51-7.46-2.52-4.14-0.42
						c1.81,1.15,3.19,1.78,3.98,2.08c-0.01,0.11,1.42,0.27,1.42,0.17c0.79-0.14,2.3-0.51,4.41-1.4
						C362.89,353.54,356.83,354.63,354.99,354.76z"/>
				</g>
				<g class="st16">
					<path class="st0" d="M383.24,321.61c1.38,0.36,2.77,0.74,4.15,1.16c-0.56,3.43-1.17,5.34-2.61,8.87
						c1.97-3.3,2.89-5.11,4.01-8.45c1.08,0.34,2.17,0.69,3.25,1.05c-1.29,3.41-2.32,5.26-4.49,8.62c2.38-3.26,3.54-5.08,5.05-8.43
						c0.78,0.26,1.57,0.53,2.35,0.79c-1.73,3.03-4.99,7.56-7.25,10.18c0.72,0.8,1.25,1.79,1.59,2.92c0.65,2.23-0.35,4.21-1.6,6.38
						c-1.52,2.65-2.42,5.43-4.09,8.02c-1.46,2.27-3.42,4.1-4.89,6.35c-1.75,2.67-4,4.92-6.16,7.12c-0.3,0.3-0.59,0.61-0.88,0.91
						c-0.37,0.39-0.75,0.77-1.13,1.16c-1.28,1.31-2.57,2.58-4.01,3.62c-2.09,1.51-4.23,2.85-6.4,4.01c-0.25,0.14-0.51,0.27-0.76,0.4
						c-1.7,0.87-3.41,1.65-5.16,2.31c-0.69,0.26-2.73,0.81-4.33,0.81c-1.51,0-2.64-0.48-1.89-2.15c0.57-1.27,2.04-2.27,3.04-3.14
						c1.68-1.47,3.38-2.93,4.88-4.62c0.38-0.43,0.75-0.88,1.11-1.33c0.09-0.11,0.17-0.22,0.25-0.33c0.92-1.21,1.79-2.46,2.67-3.7
						c1.39-1.94,2.99-3.65,4.33-5.62c1.15-1.71,2.26-3.44,3.28-5.21c0.22-0.38,0.43-0.77,0.65-1.16c0.91-1.64,1.75-3.3,2.47-5
						c0.83-1.97,2.18-3.51,3.03-5.42c0.75-1.68,0.88-3.66,1.92-5.21c1.31-1.95,3.76-3.02,6.21-3.18
						C382.27,331.14,383.33,326.42,383.24,321.61 M383.24,319.49c-0.47,0-0.93,0.16-1.31,0.46c-0.52,0.41-0.82,1.04-0.81,1.7
						c0.07,3.7-0.59,7.36-1.09,9.78c-2.63,0.54-4.88,1.93-6.2,3.9c-0.81,1.21-1.17,2.52-1.49,3.68c-0.19,0.67-0.36,1.31-0.6,1.85
						c-0.35,0.78-0.82,1.53-1.32,2.32c-0.61,0.96-1.23,1.96-1.73,3.14c-0.61,1.46-1.39,3.03-2.37,4.8l-0.17,0.3
						c-0.15,0.28-0.3,0.55-0.46,0.83c-0.95,1.64-2,3.31-3.2,5.09c-0.67,0.99-1.42,1.92-2.22,2.91c-0.69,0.85-1.4,1.73-2.07,2.67
						c-0.22,0.31-0.44,0.63-0.67,0.94c-0.64,0.9-1.29,1.83-1.96,2.7l-0.13,0.17l-0.11,0.15c-0.36,0.46-0.7,0.87-1.02,1.23
						c-1.27,1.44-2.71,2.7-4.23,4.03l-0.46,0.41c-0.19,0.17-0.4,0.34-0.62,0.52c-1.02,0.84-2.3,1.89-2.95,3.35
						c-0.75,1.66-0.37,2.82,0.07,3.51c0.7,1.08,1.96,1.63,3.76,1.63c1.96,0,4.27-0.64,5.08-0.94c1.77-0.67,3.58-1.48,5.38-2.41
						c0.27-0.14,0.53-0.28,0.8-0.42c2.26-1.21,4.49-2.61,6.64-4.16c1.65-1.19,3.08-2.62,4.29-3.86l0.39-0.4
						c0.25-0.25,0.5-0.51,0.74-0.76l0.18-0.18c0.23-0.24,0.46-0.48,0.69-0.72l0.31-0.32c2.13-2.17,4.33-4.41,6.1-7.13
						c0.66-1.01,1.44-1.94,2.27-2.93c0.89-1.07,1.82-2.17,2.63-3.43c1.01-1.57,1.75-3.17,2.47-4.72c0.55-1.18,1.06-2.3,1.68-3.39
						c1.16-2.02,2.74-4.78,1.79-8.02c-0.24-0.81-0.55-1.55-0.94-2.23c2.27-2.81,4.91-6.6,6.41-9.22c0.31-0.55,0.37-1.21,0.14-1.8
						c-0.22-0.59-0.7-1.05-1.3-1.26c-0.79-0.27-1.58-0.53-2.36-0.8c-0.09-0.03-0.19-0.06-0.29-0.07c-0.09-0.04-0.18-0.08-0.28-0.11
						c-1.1-0.36-2.19-0.72-3.29-1.06c-0.21-0.07-0.42-0.1-0.63-0.1c-0.04,0-0.08,0-0.12,0c-0.19-0.15-0.42-0.26-0.66-0.34
						c-1.4-0.42-2.82-0.82-4.23-1.18C383.6,319.51,383.42,319.49,383.24,319.49L383.24,319.49z"/>
				</g>
				<g class="st16">
					<g>
						<path class="st12" d="M392.6,324.43c-1.51,3.36-2.67,5.17-5.05,8.43c2.17-3.36,3.2-5.21,4.49-8.62
							c-1.09-0.36-2.17-0.71-3.25-1.05c-1.12,3.34-2.04,5.15-4.01,8.45c1.44-3.53,2.05-5.45,2.61-8.87
							c-1.38-0.42-2.76-0.8-4.15-1.16c0.11,6.36-1.79,12.58-1.64,12.95c0.3,0.77,1.87,1.72,2.76,1.32c0.17,0.7,0.53,1.31,1,1.56
							c0.81,0.44,6.96-7.62,9.59-12.22C394.16,324.95,393.38,324.69,392.6,324.43z"/>
						<g>
							<defs>
								<path id="SVGID_5_" d="M378.7,359.07c-1.75,2.67-4,4.92-6.16,7.12c-1.98,2.01-3.83,4.11-6.02,5.69
									c-3.97,2.86-8.07,5.11-12.32,6.72c-1.34,0.51-7.77,2.09-6.23-1.34c0.57-1.27,2.04-2.27,3.04-3.14
									c1.68-1.47,3.38-2.93,4.88-4.62c1.48-1.67,2.73-3.55,4.03-5.36c1.39-1.94,2.99-3.65,4.33-5.62
									c2.47-3.66,4.73-7.42,6.4-11.37c0.83-1.97,2.18-3.51,3.03-5.41c0.75-1.68,0.88-3.66,1.92-5.21c1.88-2.8,6.09-3.82,9.27-2.88
									c2.24,0.66,3.74,2.39,4.42,4.7c0.65,2.23-0.35,4.21-1.6,6.38c-1.52,2.65-2.42,5.43-4.09,8.02
									C382.13,354.98,380.18,356.81,378.7,359.07z"/>
							</defs>
							<clipPath id="SVGID_6_">
								<use xlink:href="#SVGID_5_"  style="overflow:visible;"/>
							</clipPath>
							<path class="st18" d="M378.7,359.07c-1.75,2.67-4,4.92-6.16,7.12c-1.98,2.01-3.83,4.11-6.02,5.69
								c-3.97,2.86-8.07,5.11-12.32,6.72c-1.34,0.51-7.77,2.09-6.23-1.34c0.57-1.27,2.04-2.27,3.04-3.14
								c1.68-1.47,3.38-2.93,4.88-4.62c1.48-1.67,2.73-3.55,4.03-5.36c1.39-1.94,2.99-3.65,4.33-5.62c2.47-3.66,4.73-7.42,6.4-11.37
								c0.83-1.97,2.18-3.51,3.03-5.41c0.75-1.68,0.88-3.66,1.92-5.21c1.88-2.8,6.09-3.82,9.27-2.88c2.24,0.66,3.74,2.39,4.42,4.7
								c0.65,2.23-0.35,4.21-1.6,6.38c-1.52,2.65-2.42,5.43-4.09,8.02C382.13,354.98,380.18,356.81,378.7,359.07z"/>
							<path class="st19" d="M374.96,345.11c1.86,0.54,2.9,0.73,4.92,1.65c3.38,1.54,4.44,2.83,4.44,2.83s-2.69-0.14-5.39-1.55
								C376.23,346.62,374.96,345.11,374.96,345.11z"/>
							<path class="st19" d="M357.08,372.34c0.85,0.76,1.36,1.13,2.14,2.17c1.31,1.74,1.45,2.75,1.45,2.75s-1.43-0.75-2.44-2.23
								C357.23,373.54,357.08,372.34,357.08,372.34z"/>
							<path class="st19" d="M374.12,356.04c-1.77-1.25-3-2.5-4.51-3.23c-2.52-1.22-4.6-2.08-4.6-2.08s0.88,1.29,2.75,2.76
								C370.7,355.78,374.12,356.04,374.12,356.04z"/>
							<path class="st19" d="M384.5,340.64c0,0-3.09-1.73-4.51-2.06c-0.9-0.21-3.4-0.37-3.4-0.37s1.31,0.98,2.54,1.44
								C381.85,340.68,384.5,340.64,384.5,340.64z"/>
							<path class="st19" d="M364.75,363.15c1.33,1.74,2.51,3.22,4.62,4.44c2.1,1.22,5.12,2.83,5.12,2.83s-2.17-3.28-5.09-5.12
								C366.48,363.47,364.75,363.15,364.75,363.15z"/>
							<path class="st19" d="M356.66,367.51c0.44,0.88,0.85,1.63,1.67,2.34c0.82,0.72,1.98,1.71,1.98,1.71s-0.67-1.66-1.78-2.73
								C357.41,367.77,356.66,367.51,356.66,367.51z"/>
						</g>
					</g>
				</g>
			</g>
		</g>
	</g>
	<g>
		<path class="st1" d="M76.52,379.93v-39.6c0-40.56,32.88-73.45,73.45-73.45h0c40.56,0,73.45,32.88,73.45,73.45v39.6
			c0,40.56-32.88,73.45-73.45,73.45h0C109.4,453.37,76.52,420.49,76.52,379.93z"/>
		<path class="st0" d="M149.96,277.89L149.96,277.89c35.17,0,63.68,28.51,63.68,63.68v37.1c0,35.17-28.51,63.68-63.68,63.68h0
			c-35.17,0-63.68-28.51-63.68-63.68v-37.1C86.28,306.4,114.79,277.89,149.96,277.89z"/>
		<g>
			<path class="st9" d="M150.08,277.89L150.08,277.89c35.17,0,63.68,28.51,63.68,63.68v37.1c0,35.17-28.51,63.68-63.68,63.68h0
				c-35.17,0-63.68-28.51-63.68-63.68v-37.1C86.39,306.4,114.91,277.89,150.08,277.89z"/>
			<g>
				<g>
					<g>
						<path class="st20" d="M190.61,408.12l-1.71,1.07c-0.48,0.3-1.09-0.14-0.95-0.69l0.49-1.96c0.06-0.24-0.02-0.48-0.21-0.64
							l-1.55-1.29c-0.44-0.37-0.21-1.08,0.36-1.12l2.02-0.14c0.24-0.02,0.45-0.17,0.54-0.4l0.75-1.87c0.21-0.53,0.96-0.53,1.18,0
							l0.75,1.87c0.09,0.23,0.3,0.38,0.54,0.4l2.01,0.14c0.57,0.04,0.8,0.75,0.36,1.12l-1.55,1.29c-0.19,0.16-0.27,0.4-0.21,0.64
							l0.49,1.96c0.14,0.55-0.47,0.99-0.95,0.69l-1.71-1.07C191.08,407.99,190.81,407.99,190.61,408.12z"/>
					</g>
				</g>
				<g>
					<g>
						<path class="st20" d="M108.88,408.12l-1.71,1.07c-0.48,0.3-1.09-0.14-0.95-0.69l0.49-1.96c0.06-0.24-0.02-0.48-0.21-0.64
							l-1.55-1.29c-0.44-0.37-0.21-1.08,0.36-1.12l2.01-0.14c0.24-0.02,0.45-0.17,0.54-0.4l0.75-1.87c0.21-0.53,0.96-0.53,1.18,0
							l0.75,1.87c0.09,0.23,0.3,0.38,0.54,0.4l2.01,0.14c0.57,0.04,0.8,0.75,0.36,1.12l-1.55,1.29c-0.19,0.16-0.27,0.4-0.21,0.64
							l0.49,1.96c0.14,0.55-0.47,0.99-0.95,0.69l-1.71-1.07C109.35,407.99,109.08,407.99,108.88,408.12z"/>
					</g>
				</g>
			</g>
			<g>
				<path class="st11" d="M183.82,306.85c-5.7,2.73-9.13-0.81-9.13-0.81s-0.68-4.86,5.1-7.62c3.93-1.88,9.13,0.81,9.13,0.81
					S187.75,304.97,183.82,306.85z"/>
				<path class="st17" d="M191.94,323.73c0,9.94-7.16,18.39-12.92,19.54c-2.56,0.51-3.82-0.12-4.88-0.12c-1.51,0-4,0.44-5.48,0.23
					c-2.81-0.41-5.53-2.73-7.74-5.81c-2.98-4.17-5.02-9.73-5.02-13.84c0-2.68,0.6-6.57,2.99-9.62c3.62-4.6,6.88-4.98,11.24-4.94
					c1.17,0.01,2.42,0.06,3.78,0.06c1.36,0,2.61-0.05,3.75-0.08c4.64-0.13,7.77,0.06,11.49,5.26c1.04,1.45,2.26,4.45,2.65,7.46
					C191.9,322.49,191.94,323.11,191.94,323.73z"/>
				<path id="XMLID_2_" class="st11" d="M173.68,310.74c0,0,0.23-7.9-1.64-10.92c0,0,0.81-1.48,2.76-0.6c0,0,0.99,4.61-0.29,11.76
					L173.68,310.74z"/>
			</g>
			<g>
				<g>
					<path class="st11" d="M130.96,311.76c-0.42-0.83,2.07-2.26,2.85-5.21c0.51-1.9-0.43-4.14-1.19-5.9
						c-0.84,1.78-2.6,2.92-4.71,2.05c-2.73-1.12-6.63-2.59-8.51-1.92c2.4,0.96,3.14,4.58,0.64,5.02c-3.47,0.61-5.01,2.6-5.83,3.75
						c1.01,0.13,1.46,0.77,1.47,1.25c0.01,1.9-4.71,4.71-5.56,5.2c1.92,1.02,3.92,0.93,5.66,0.82c0.94-0.06,1.91-0.71,2.5,0.15
						c0.94,1.36-1.66,2.08-1.43,2.23c4.05,2.55,5.31-0.05,7.74,1.12c1.46,0.71,2,2.44,1.33,3.9c0.85-0.03,4.17-1.58,6.56-4.21
						c0.99-1.09,2.96-0.11,3.88,1.45C137.01,317.39,135.68,312.35,130.96,311.76z"/>
					<path class="st11" d="M137.8,309.76c-2.9,0.47-8.66,1.14-10.63,1.52c-1.96,0.38-5.84,1.54-8.38,2.41
						c-2.54,0.88-7.98,2.29-7.98,2.29s4.61-0.72,6.43-1.19c1.81-0.47,7.85-2.61,9.56-2.78c1.71-0.17,5.62-0.79,6.71-0.78
						c1.08,0.01,3.36-0.43,3.36-0.43L137.8,309.76z"/>
				</g>
				<g>
					<path class="st21" d="M134.65,343.98c-2.38,2.35-6.21,2.33-8.56-0.05c-0.21-0.21-0.4-0.44-0.58-0.68
						c-0.39-0.54-0.69-1.13-0.88-1.74c-0.66-2.1-0.16-4.49,1.52-6.15c1.59-1.56,3.82-2.07,5.82-1.54c0.37,0.1,0.73,0.23,1.07,0.4
						c0.6,0.29,1.16,0.69,1.66,1.19C137.06,337.79,137.03,341.63,134.65,343.98z"/>
				</g>
				<g>
					<path class="st21" d="M117.96,348.05c-2.69,1.55-6.12,0.62-7.66-2.06c-0.14-0.24-0.26-0.49-0.36-0.74
						c-0.23-0.58-0.35-1.17-0.38-1.77c-0.02-0.52,0.02-1.05,0.14-1.56c0.02-0.07,0.03-0.15,0.05-0.22c0.38-1.37,1.28-2.61,2.61-3.38
						c1.79-1.03,3.91-0.96,5.59-0.01c0.31,0.17,0.6,0.38,0.87,0.61c0.03,0.03,0.06,0.05,0.09,0.08c0.43,0.39,0.81,0.85,1.12,1.38
						c0.12,0.22,0.24,0.45,0.33,0.67C121.41,343.62,120.43,346.63,117.96,348.05z"/>
				</g>
				<path class="st11" d="M141.16,302.08c-0.49-0.11-0.94,0-0.99,0.25c0,0,0,0,0,0l0,0c0,0-3.25,7.16-5.8,11.6
					c-0.39,0.68-0.76,1.29-1.1,1.81c-2.59,3.91-8.33,5.97-12.61,8.96c-4.28,2.99-7.53,6-7.53,6l0.36,1.78c0,0,6.77-6.26,12.57-9.29
					c5.8-3.03,10.29-9.19,11.78-12.41c1.49-3.21,4.14-8.06,4.14-8.06l0,0C142.01,302.47,141.66,302.19,141.16,302.08z"/>
				<g>
					<path class="st22" d="M106.07,331.08c-1.47-3-0.23-6.63,2.77-8.1c0.89-0.43,1.83-0.63,2.75-0.62c2.2,0.04,4.31,1.28,5.35,3.4
						c1.16,2.37,0.63,5.12-1.11,6.9c-0.47,0.48-1.02,0.88-1.66,1.19C111.17,335.33,107.54,334.08,106.07,331.08z"/>
				</g>
				<g>
					<path class="st21" d="M139.53,319.8c1.86,2.78,1.12,6.54-1.66,8.4c-0.82,0.55-1.73,0.87-2.65,0.98
						c-2.19,0.26-4.44-0.69-5.75-2.65c-1.46-2.19-1.31-4.99,0.18-6.99c0.4-0.53,0.9-1.01,1.48-1.41
						C133.91,316.27,137.67,317.02,139.53,319.8z"/>
				</g>
				<g>
					<path class="st23" d="M105.02,339.74c1.16,3.14,4.64,4.74,7.77,3.59c0.28-0.1,0.55-0.23,0.81-0.37c0.59-0.32,1.1-0.73,1.54-1.2
						c1.49-1.62,2.05-4,1.23-6.21c-0.77-2.09-2.58-3.5-4.62-3.87c-0.37-0.07-0.76-0.1-1.14-0.1c-0.67,0.01-1.34,0.13-2.01,0.38
						C105.46,333.12,103.86,336.6,105.02,339.74z"/>
				</g>
				<g>
					<path class="st21" d="M119.39,338.88c-3.35,0.04-6.09-2.63-6.13-5.97c-0.01-0.99,0.21-1.92,0.62-2.75
						c0.98-1.97,3-3.34,5.36-3.38c2.64-0.03,4.9,1.62,5.76,3.96c0.23,0.63,0.36,1.3,0.37,2.01
						C125.41,336.09,122.73,338.83,119.39,338.88z"/>
				</g>
				<g>
					<path class="st22" d="M134.16,333.57c-0.74,3.26-3.98,5.31-7.24,4.57c-0.29-0.07-0.58-0.15-0.85-0.26
						c-0.62-0.24-1.19-0.58-1.68-0.99c-1.69-1.41-2.55-3.7-2.03-6c0.5-2.17,2.1-3.8,4.08-4.43c0.36-0.12,0.74-0.2,1.12-0.24
						c0.66-0.08,1.35-0.04,2.04,0.11C132.86,327.06,134.9,330.31,134.16,333.57z"/>
				</g>
				<g>
					<path class="st23" d="M130.9,320.43c-2.54,1.46-5.78,0.59-7.24-1.95c-0.13-0.23-0.24-0.46-0.34-0.7
						c-0.21-0.54-0.33-1.11-0.36-1.67c-0.02-0.5,0.02-0.99,0.14-1.47c0.02-0.07,0.03-0.14,0.05-0.21c0.36-1.3,1.21-2.46,2.47-3.19
						c1.69-0.97,3.7-0.91,5.28-0.01c0.29,0.16,0.57,0.36,0.82,0.58c0.03,0.02,0.06,0.05,0.08,0.08c0.41,0.37,0.77,0.8,1.06,1.3
						c0.12,0.21,0.22,0.42,0.31,0.64C134.17,316.24,133.23,319.08,130.9,320.43z"/>
				</g>
				<g>
					<path class="st23" d="M124.69,345.87c-2.54,1.46-5.78,0.59-7.24-1.95c-0.13-0.23-0.24-0.46-0.34-0.7
						c-0.21-0.54-0.33-1.11-0.36-1.67c-0.02-0.5,0.02-0.99,0.14-1.47c0.02-0.07,0.03-0.14,0.05-0.21c0.36-1.3,1.21-2.46,2.47-3.19
						c1.69-0.97,3.7-0.91,5.28-0.01c0.29,0.16,0.57,0.35,0.82,0.58c0.03,0.02,0.06,0.05,0.08,0.08c0.41,0.37,0.77,0.8,1.06,1.3
						c0.12,0.21,0.22,0.42,0.31,0.64C127.96,341.68,127.03,344.53,124.69,345.87z"/>
				</g>
				<g>
					<path class="st21" d="M97.94,338.9c-0.64-3.26,1.36-6.49,4.48-7.22c0.28-0.07,0.56-0.11,0.84-0.13
						c0.63-0.05,1.26,0.01,1.85,0.17c0.52,0.14,1.02,0.36,1.47,0.64c0.07,0.04,0.13,0.08,0.2,0.13c1.22,0.83,2.13,2.15,2.46,3.77
						c0.43,2.17-0.32,4.33-1.79,5.75c-0.27,0.26-0.56,0.5-0.88,0.7c-0.03,0.02-0.07,0.04-0.11,0.07c-0.52,0.32-1.09,0.56-1.71,0.71
						c-0.26,0.06-0.51,0.1-0.76,0.12C101.15,343.87,98.53,341.89,97.94,338.9z"/>
				</g>
				<g>
					<path class="st21" d="M112.25,322.29c0.04-3.35,2.78-6.02,6.12-5.98c0.3,0,0.6,0.03,0.89,0.07c0.66,0.11,1.28,0.32,1.85,0.62
						c1.95,1.03,3.27,3.08,3.24,5.44c-0.03,2.23-1.26,4.16-3.06,5.19c-0.33,0.19-0.68,0.35-1.04,0.47
						c-0.63,0.21-1.31,0.33-2.02,0.32C114.89,328.38,112.21,325.63,112.25,322.29z"/>
				</g>
				<g>
					<path class="st22" d="M128.84,328.54c-2.69,1.55-6.12,0.62-7.66-2.06c-0.14-0.24-0.26-0.49-0.36-0.74
						c-0.23-0.58-0.35-1.17-0.38-1.77c-0.02-0.52,0.02-1.05,0.14-1.56c0.02-0.07,0.03-0.15,0.05-0.22c0.38-1.37,1.28-2.61,2.61-3.38
						c1.79-1.03,3.91-0.96,5.59-0.01c0.31,0.17,0.6,0.38,0.87,0.61c0.03,0.03,0.06,0.05,0.09,0.08c0.43,0.39,0.81,0.85,1.12,1.38
						c0.12,0.22,0.24,0.45,0.33,0.67C132.29,324.11,131.31,327.12,128.84,328.54z"/>
				</g>
			</g>
			<g>
				<path class="st20" d="M166.81,330.36c0,3.04-0.79,5.81-2.17,8.15c-2.95,5.02-8.6,8.13-15.05,7.94
					c-2.43-0.07-4.74-0.61-6.82-1.54c-5.29-2.37-9.06-7.31-9.41-13.58c-0.19-3.49,0.65-6.76,2.25-9.53c0.68-1.16,1.48-2.24,2.4-3.21
					c1.45-1.53,2.54-3.37,3.07-5.42c0.01-0.01,0.01-0.02,0.01-0.02c1-3.82,2.9-6.89,5.27-8.47c1.14-0.77,2.39-1.19,3.71-1.19
					c1.87,0,3.63,0.86,5.11,2.34c1.72,1.72,3.09,4.29,3.88,7.34c0.53,2.06,1.64,3.91,3.09,5.45
					C165.03,321.66,166.81,325.8,166.81,330.36z"/>
				<path id="XMLID_1_" class="st11" d="M150.93,304.13c0,0-1.05-8.95-0.33-11.39l-3.34,0.35c0,0,2.47,6.38,2.81,11.32
					L150.93,304.13z"/>
			</g>
			<path class="st1" d="M143.53,351.75c-27.36,2.83-53.7,7.69-78.71,14.29c3.69,12.28,7.2,24.01,10.5,35.21
				c22.47-5.41,46.03-9.35,70.43-11.66c27.19-2.57,54.23-2.98,80.72-1.36l7.48-38.19C204.3,348.07,173.98,348.6,143.53,351.75z"/>
			<path class="st24" d="M143.53,351.75c-27.36,2.83-53.7,7.69-78.71,14.29c3.69,12.28,7.2,24.01,10.5,35.21
				c22.47-5.41,46.03-9.35,70.43-11.66c27.19-2.57,54.23-2.98,80.72-1.36l7.48-38.19C204.3,348.07,173.98,348.6,143.53,351.75z"/>
		</g>
	</g>
</g>
<g id="TEXTS">
	<g>
		<g>
			<text transform="matrix(0.8704 0 0 1 130.6383 179.179)"><tspan x="0" y="0" class="st25 st26 st27 st28">SHOP</tspan><tspan x="-5" y="17.01" class="st25 st26 st27 st28">LOCAL</tspan></text>
		</g>
	</g>
	<g>
		<path id="SVGID_x5F_7_x5F_" class="st29" d="M309.31,150.56c-5.16-32.46,19.76-57.23,44.9-58.42
			c27.21-1.29,54.24,17.04,54.18,50.39"/>
		<text>		<textPath  xlink:href="#SVGID_x5F_7_x5F_" startOffset="5.96%">
<tspan  class="st25 st26" style="font-size:15.0826px; letter-spacing:344.67;">BE LOYAL</tspan>		</textPath>
</text>
		<path id="SVGID_x5F_8_x5F_" class="st29" d="M300.71,111.8c-18.3,52.35,15.71,87.24,50.64,91.5c31.28,3.81,76.89-22.63,67.54-78.5
			"/>
		<text>		<textPath  xlink:href="#SVGID_x5F_8_x5F_" startOffset="5.96%">
<tspan  class="st25 st26" style="font-size:15.0826px; letter-spacing:229.78;">SHOP LOCAL</tspan>		</textPath>
</text>
	</g>
	<g>
		<text transform="matrix(0.8704 0 0 1 318.5009 420.7026)" class="st25 st26 st30 st28">SHOP LOCAL</text>
		<text transform="matrix(0.8704 0 0 1 319.3828 311.4753)" class="st25 st26 st31 st32">BE LOYAL</text>
	</g>
	<g>
		<g>
			<text transform="matrix(0.8704 0 0 1 130.8275 409.3953)"><tspan x="0" y="0" class="st25 st26 st27 st28">100%</tspan><tspan x="-3.85" y="17.01" class="st25 st26 st27 st28">FRESH</tspan></text>
		</g>
		<g>
			<path id="SVGID_x5F_9_x5F_" class="st29" d="M73.03,392.03c0,0,70-21.86,154.42-14.9"/>
			<text>			<textPath  xlink:href="#SVGID_x5F_9_x5F_" startOffset="19.043%">
<tspan  class="st26" style="fill:#FFFFFF;stroke:#FFFFFF;stroke-width:1.5;stroke-linecap:round;stroke-linejoin:round;stroke-miterlimit:10; font-size:21.781px; letter-spacing:57.44;">SHOP LOCAL</tspan>			</textPath>
</text>
		</g>
	</g>
</g>
</svg>
